<svg id="Layer_1" data-name="Layer 1" xmlns="http://www.w3.org/2000/svg" viewBox="0 0 128 128"><title>iStar_Design_Business_LineIcons_Outlined-59</title><path d="M104.88,97.46A52.55,52.55,0,0,0,112.93,84a1,1,0,0,0-.2-1.08l-3.2-3.31,4.64-.82a1,1,0,0,0,.79-.72,52.88,52.88,0,0,0,1.9-14c0-.32,0-.63,0-1v-.42a1,1,0,0,0-.63-.9l-4.6-1.86,4.23-2.86a1,1,0,0,0,.43-1,52.41,52.41,0,0,0-4.48-14.61.94.94,0,0,0-.94-.57l-5.35.18,2.88-4.62a1,1,0,0,0,0-1.08A52.56,52.56,0,0,0,98.39,24a1,1,0,0,0-1.08-.14l-5.08,2.46L93,20.69a1,1,0,0,0-.45-1,52.26,52.26,0,0,0-13.63-6.19,1,1,0,0,0-1,.31L74.14,18.3l-1.62-5.63A1,1,0,0,0,71.7,12a52.52,52.52,0,0,0-14.92,0,1,1,0,0,0-.82.71L54.34,18.3l-3.75-4.47a1,1,0,0,0-1.05-.31,52.41,52.41,0,0,0-13.63,6.19,1,1,0,0,0-.45,1l.79,5.67-5.07-2.47a1,1,0,0,0-1.09.14,53,53,0,0,0-10,11.34,1,1,0,0,0,0,1.08L23,41.07l-5.36-.18a1,1,0,0,0-.93.57,51.85,51.85,0,0,0-4.48,14.61,1,1,0,0,0,.42,1l4.23,2.86-4.6,1.86a1,1,0,0,0-.62.9v.42c0,.32,0,.63,0,1a52.88,52.88,0,0,0,1.9,14,1,1,0,0,0,.79.72L19,79.6l-3.19,3.31A1,1,0,0,0,15.55,84a52.69,52.69,0,0,0,8.06,13.47,1,1,0,0,0,1,.34l4.23-1-1.45,4a1,1,0,0,0,.24,1.06A52.69,52.69,0,0,0,40.56,111a1,1,0,0,0,1.07-.1l3.24-2.53.29,4.07a1,1,0,0,0,.65.87,52.61,52.61,0,0,0,15.61,3.25,1,1,0,0,0,.93-.53l1.89-3.54,1.89,3.54a1,1,0,0,0,.88.53h.06a52.74,52.74,0,0,0,15.61-3.25,1,1,0,0,0,.64-.87l.29-4.07,3.25,2.53a1,1,0,0,0,1.06.1,52.5,52.5,0,0,0,12.92-9.2,1,1,0,0,0,.25-1.06l-1.46-4,4.23,1A1,1,0,0,0,104.88,97.46Zm-6.58-3.1a1,1,0,0,0-1.19,1.31L99,100.83A50.81,50.81,0,0,1,87.58,109l-4.22-3.29a1,1,0,0,0-1-.13,1,1,0,0,0-.59.85l-.38,5.29a50.21,50.21,0,0,1-13.77,2.87l-2.47-4.63a1,1,0,0,0-1.77,0l-2.47,4.63a50.2,50.2,0,0,1-13.78-2.87l-.38-5.29a1,1,0,0,0-1.61-.72L40.9,109a50.53,50.53,0,0,1-11.4-8.12l1.87-5.16a1,1,0,0,0-1.18-1.31l-5.44,1.35a50.82,50.82,0,0,1-7.1-11.88l4-4.19a1,1,0,0,0,.23-1,1,1,0,0,0-.77-.67l-5.86-1A51.08,51.08,0,0,1,13.63,64c0-.22,0-.44,0-.66l5.73-2.33a1,1,0,0,0,.18-1.75L14.3,55.75a50.09,50.09,0,0,1,3.94-12.84l6.57.22a.93.93,0,0,0,.9-.5,1,1,0,0,0,0-1l-3.54-5.68A51.17,51.17,0,0,1,30.9,26l6.16,3a1,1,0,0,0,1-.09,1,1,0,0,0,.4-.94l-1-6.89a50.72,50.72,0,0,1,11.95-5.43L54,21a1,1,0,0,0,1,.34,1,1,0,0,0,.75-.7l2-6.81a50.24,50.24,0,0,1,13.08,0l2,6.81a1,1,0,0,0,1.73.36L79,15.62A50.46,50.46,0,0,1,91,21.05l-1,6.89a1,1,0,0,0,.4.94,1,1,0,0,0,1,.09l6.17-3a50.83,50.83,0,0,1,8.74,10l-3.53,5.68a1,1,0,0,0,0,1,.92.92,0,0,0,.9.5l6.57-.22a50.35,50.35,0,0,1,3.93,12.84l-5.25,3.55a1,1,0,0,0-.43.93,1,1,0,0,0,.61.82l5.74,2.33c0,.22,0,.44,0,.66a50.64,50.64,0,0,1-1.67,12.88l-5.85,1a1,1,0,0,0-.78.67,1,1,0,0,0,.23,1l4,4.19a50.55,50.55,0,0,1-7.1,11.88Z"/><path d="M89,59.59A24.74,24.74,0,0,0,86.85,53a1,1,0,0,0-.82-.56l-5.35-.42,1.25-5.21a1,1,0,0,0-.28-1,25,25,0,0,0-5.56-4.06,1,1,0,0,0-1,0l-4.57,2.81-2-5a1,1,0,0,0-.79-.61,24.77,24.77,0,0,0-6.88,0,1,1,0,0,0-.79.61l-2,5-4.58-2.81a1,1,0,0,0-1,0,25.17,25.17,0,0,0-5.57,4.06,1,1,0,0,0-.28,1l1.26,5.21-5.35.42a1,1,0,0,0-.83.56,25.11,25.11,0,0,0-2.12,6.55,1,1,0,0,0,.34.93L43.93,64l-4.08,3.48a1,1,0,0,0-.34.93A25.11,25.11,0,0,0,41.63,75a1,1,0,0,0,.83.57l5.35.41-1.26,5.21a1,1,0,0,0,.28.95,25.17,25.17,0,0,0,5.57,4.06,1,1,0,0,0,1,0L58,83.32l2,5a1,1,0,0,0,.79.6,24.77,24.77,0,0,0,6.88,0,1,1,0,0,0,.79-.6l2-5,4.57,2.81a1,1,0,0,0,1,0,25,25,0,0,0,5.56-4.06,1,1,0,0,0,.28-.95l-1.25-5.21L86,75.53a1,1,0,0,0,.82-.57A24.74,24.74,0,0,0,89,68.41a1,1,0,0,0-.33-.93L84.55,64l4.09-3.48A1,1,0,0,0,89,59.59Zm-6.61,3.65a1,1,0,0,0,0,1.52l4.54,3.86a23.55,23.55,0,0,1-1.6,5l-6,.45a1,1,0,0,0-.73.41,1,1,0,0,0-.16.83l1.39,5.78a23.39,23.39,0,0,1-4.21,3.07L70.57,81a1,1,0,0,0-.84-.1,1,1,0,0,0-.61.57L66.85,87a22.7,22.7,0,0,1-5.21,0l-2.27-5.5a1,1,0,0,0-.62-.57,1,1,0,0,0-.83.1l-5.08,3.12a23.39,23.39,0,0,1-4.21-3.07L50,75.27a1,1,0,0,0-.16-.83,1.07,1.07,0,0,0-.74-.41l-5.94-.45a23,23,0,0,1-1.6-5l4.53-3.86a1,1,0,0,0,0-1.52l-4.53-3.86a23,23,0,0,1,1.6-5L49.13,54a1,1,0,0,0,.9-1.23L48.63,47a23.39,23.39,0,0,1,4.21-3.07L57.92,47a1,1,0,0,0,.83.1,1,1,0,0,0,.62-.57L61.64,41a22.7,22.7,0,0,1,5.21,0l2.27,5.5a1,1,0,0,0,1.45.47l5.07-3.12A23.39,23.39,0,0,1,79.85,47l-1.39,5.78a1,1,0,0,0,.16.83,1,1,0,0,0,.73.4l6,.46a23.55,23.55,0,0,1,1.6,5Z"/><polygon points="99.69 63.6 100.11 63.6 100.69 63.59 99.69 63.6"/><path d="M100.11,63.6H98.68V64a1,1,0,0,0,2,0v-.41Z"/><path d="M99.39,60.42h.13a1,1,0,0,0,.87-1.12c-.12-.86-.26-1.75-.44-2.63a1,1,0,0,0-2,.4c.17.83.31,1.67.41,2.49A1,1,0,0,0,99.39,60.42Z"/><path d="M98,50.32A36.27,36.27,0,0,0,67.84,27.75l3.75-2a1,1,0,1,0-1-1.76l-6.87,3.72a.89.89,0,0,0-.22.16s0,0,0,0a1,1,0,0,0-.16.25s0,0,0,.06a.77.77,0,0,0-.07.27v.06s0,0,0,0,0,0,0,0a1.28,1.28,0,0,0,.07.34v0a1,1,0,0,0,.18.27s0,0,.05.05l0,0,6,5a1,1,0,0,0,.64.23,1,1,0,0,0,.64-1.77l-3.72-3.08a34.29,34.29,0,0,1,29,21.38A1,1,0,0,0,98,50.32Z"/><path d="M29.8,64a1,1,0,0,0-2,0,36.59,36.59,0,0,0,1.13,9,1,1,0,0,0,1,.75,1,1,0,0,0,.25,0,1,1,0,0,0,.72-1.22A34.93,34.93,0,0,1,29.8,64Z"/><path d="M102.83,112.79a1,1,0,0,0,.62-.22,63.08,63.08,0,0,0,9.09-9,62.24,62.24,0,0,0,10.37-18.18,1,1,0,1,0-1.88-.68,60,60,0,0,1-10,17.59A61,61,0,0,1,102.2,111a1,1,0,0,0-.15,1.41A1,1,0,0,0,102.83,112.79Z"/><path d="M124.93,73.52a1,1,0,0,0-1.15.82c-.27,1.57-.61,3.13-1,4.65a1,1,0,0,0,.72,1.22,1,1,0,0,0,.25,0,1,1,0,0,0,1-.75c.41-1.57.75-3.19,1-4.81A1,1,0,0,0,124.93,73.52Z"/><path d="M15.81,27.87c1.09-1.45,2.25-2.87,3.47-4.23a1,1,0,0,0-.07-1.41,1,1,0,0,0-1.42.07c-1.25,1.4-2.46,2.88-3.58,4.38a1,1,0,0,0,.2,1.4,1,1,0,0,0,.6.19A1,1,0,0,0,15.81,27.87Z"/><path d="M4.23,57A60,60,0,0,1,10.08,37.2a1,1,0,1,0-1.79-.89,61.94,61.94,0,0,0-6,20.43,1,1,0,0,0,.88,1.11h.12A1,1,0,0,0,4.23,57Z"/><path d="M64.24,52.48A11.52,11.52,0,1,0,75.77,64,11.54,11.54,0,0,0,64.24,52.48Zm0,21A9.52,9.52,0,1,1,73.77,64,9.53,9.53,0,0,1,64.24,73.52Z"/><path d="M65.22,99.53a.24.24,0,0,0,0-.09,1.13,1.13,0,0,0,0-.18.06.06,0,0,1,0,0,1,1,0,0,0-.6-.7l-6.28-4.26a1,1,0,0,0-1.12,1.66l3.42,2.32A34.24,34.24,0,0,1,33.43,79.41,1,1,0,0,0,32.09,79a1,1,0,0,0-.45,1.34,36.26,36.26,0,0,0,29.56,20l-4,2.69a1,1,0,0,0,.56,1.83,1,1,0,0,0,.56-.17l6.49-4.36a1,1,0,0,0,.36-.44.64.64,0,0,0,0-.07A.75.75,0,0,0,65.22,99.53Z"/></svg>