<svg id="Layer_1" data-name="Layer 1" xmlns="http://www.w3.org/2000/svg" viewBox="0 0 128 128"><title>iStar_Design_Business_LineIcons_Outlined-94</title><path d="M46.81,98.21h-33V91.4a1,1,0,0,0-2,0v6.81h-5V31.61H20.92a1,1,0,0,0,1-1V9.17H68.23V22.91a1,1,0,0,0,2,0V9.17h4.2v15a1,1,0,1,0,2,0v-16a1,1,0,0,0-1-1H20.92a1,1,0,0,0-.34.07l-.07,0a1.34,1.34,0,0,0-.28.18.1.1,0,0,1,0,0,1.27,1.27,0,0,0-.1.12L5,30.06a1.17,1.17,0,0,0,0,.11.93.93,0,0,0,0,.1,1,1,0,0,0-.07.34v68.6a1,1,0,0,0,1,1h41a1,1,0,0,0,0-2ZM7.71,29.61,19.92,11.45V29.61Z"/><path d="M11.83,64.09V84.63a1,1,0,0,0,2,0V64.09a1,1,0,0,0-2,0Z"/><path d="M29.66,82.39h-6.9a1,1,0,0,0-1,1V90.3a1,1,0,0,0,1,1h6.9a1,1,0,0,0,1-1V83.39A1,1,0,0,0,29.66,82.39Zm-1,6.91h-4.9V84.39h4.9Z"/><path d="M30.66,67.07a1,1,0,0,0-1-1h-6.9a1,1,0,0,0-1,1V74a1,1,0,0,0,1,1h6.9a1,1,0,0,0,1-1Zm-2,5.91h-4.9V68.07h4.9Z"/><path d="M30.66,50.76a1,1,0,0,0-1-1h-6.9a1,1,0,0,0-1,1v6.91a1,1,0,0,0,1,1h6.9a1,1,0,0,0,1-1Zm-2,5.91h-4.9V51.76h4.9Z"/><path d="M30.66,35.41a1,1,0,0,0-1-1h-6.9a1,1,0,0,0-1,1v6.91a1,1,0,0,0,1,1h6.9a1,1,0,0,0,1-1Zm-2,5.91h-4.9V36.41h4.9Z"/><path d="M46.81,86.2H36.28a1,1,0,0,0,0,2H46.81a1,1,0,0,0,0-2Z"/><path d="M36.28,71.53h10a1,1,0,0,0,0-2h-10a1,1,0,0,0,0,2Z"/><path d="M46.81,52.65H36.28a1,1,0,0,0,0,2H46.81a1,1,0,0,0,0-2Z"/><path d="M36.28,37.29a1,1,0,0,0,0,2H41.2a1,1,0,0,0,0-2Z"/><path d="M61.68,15.72H46a1,1,0,0,0,0,2H61.68a1,1,0,1,0,0-2Z"/><path d="M62.68,22.91a1,1,0,0,0-1-1H35.62a1,1,0,0,0,0,2H61.68A1,1,0,0,0,62.68,22.91Z"/><path d="M122.17,27.79H67.66a1,1,0,0,0-.35.07l-.07,0a1.27,1.27,0,0,0-.27.18l0,.05-.1.11-6.09,9.06H46a1,1,0,0,0,0,2H59.4L51.74,50.68a1.17,1.17,0,0,0-.05.11.31.31,0,0,0,0,.1,1,1,0,0,0-.07.34v68.6a1,1,0,0,0,1,1h69.16a.91.91,0,0,0,.4-.1h0a1,1,0,0,0,1-1V93.47a1,1,0,0,0-2,0v25.36H60.57V112a1,1,0,0,0-2,0v6.82h-5V52.23H67.66a1,1,0,0,0,1-1V29.79H115V43.53a1,1,0,0,0,2,0V29.79h4.2v57.9a1,1,0,0,0,2,0V28.79A1,1,0,0,0,122.17,27.79ZM54.45,50.23,66.66,32.07V50.23Z"/><path d="M58.57,84.71v20.54a1,1,0,0,0,2,0V84.71a1,1,0,0,0-2,0Z"/><path d="M76.4,103H69.49a1,1,0,0,0-1,1v6.91a1,1,0,0,0,1,1H76.4a1,1,0,0,0,1-1V104A1,1,0,0,0,76.4,103Zm-1,6.91H70.49V105H75.4Z"/><path d="M77.4,87.69a1,1,0,0,0-1-1H69.49a1,1,0,0,0-1,1V94.6a1,1,0,0,0,1,1H76.4a1,1,0,0,0,1-1Zm-2,5.91H70.49V88.69H75.4Z"/><path d="M77.4,71.38a1,1,0,0,0-1-1H69.49a1,1,0,0,0-1,1v6.91a1,1,0,0,0,1,1H76.4a1,1,0,0,0,1-1Zm-2,5.91H70.49V72.38H75.4Z"/><path d="M77.4,56a1,1,0,0,0-1-1H69.49a1,1,0,0,0-1,1v6.9a1,1,0,0,0,1,1H76.4a1,1,0,0,0,1-1Zm-2,5.9H70.49V57H75.4Z"/><path d="M83,106.82a1,1,0,1,0,0,2H96.45a1,1,0,0,0,0-2Z"/><path d="M106.23,91.15a1,1,0,0,0-1-1H83a1,1,0,0,0,0,2h22.21A1,1,0,0,0,106.23,91.15Z"/><path d="M82,74.27a1,1,0,0,0,1,1H96.45a1,1,0,0,0,0-2H83A1,1,0,0,0,82,74.27Z"/><path d="M110.24,74.27a1,1,0,0,0-1-1h-8.88a1,1,0,0,0,0,2h8.88A1,1,0,0,0,110.24,74.27Z"/><path d="M87.93,57.91H83a1,1,0,0,0,0,2h4.91a1,1,0,0,0,0-2Z"/><path d="M113.79,58.91a1,1,0,0,0-1-1H92.7a1,1,0,0,0,0,2h20.09A1,1,0,0,0,113.79,58.91Z"/><path d="M108.42,38.34a1,1,0,0,0,0-2H92.7a1,1,0,0,0,0,2Z"/><path d="M81.36,43.53a1,1,0,0,0,1,1h26.06a1,1,0,0,0,0-2H82.36A1,1,0,0,0,81.36,43.53Z"/><path d="M102,108.83h4.59a1,1,0,0,0,0-2H102a1,1,0,0,0,0,2Z"/></svg>